<mxfile host="app.diagrams.net" modified="2020-10-03T20:09:44.979Z" agent="5.0 (Windows NT 10.0; Win64; x64) AppleWebKit/537.36 (KHTML, like Gecko) Chrome/85.0.4183.121 Safari/537.36" etag="3JXAUr2EtDC9b_pGJ1hb" version="13.7.7" type="github">
  <diagram id="j0k0FTcwtLzT4vCtJh92" name="Page-1">
    <mxGraphModel dx="2062" dy="1123" grid="0" gridSize="10" guides="1" tooltips="1" connect="1" arrows="1" fold="1" page="1" pageScale="1" pageWidth="850" pageHeight="1100" math="0" shadow="0">
      <root>
        <mxCell id="0" />
        <mxCell id="1" parent="0" />
        <mxCell id="UCnYaG4U3IA6hD6IUP2c-7" value="" style="rounded=0;whiteSpace=wrap;html=1;shadow=1;" parent="1" vertex="1">
          <mxGeometry x="200" y="60" width="550" height="580" as="geometry" />
        </mxCell>
        <mxCell id="UCnYaG4U3IA6hD6IUP2c-10" style="edgeStyle=orthogonalEdgeStyle;rounded=0;orthogonalLoop=1;jettySize=auto;html=1;exitX=0.5;exitY=0.5;exitDx=0;exitDy=0;exitPerimeter=0;entryX=0.5;entryY=0.5;entryDx=0;entryDy=0;entryPerimeter=0;" parent="1" source="UCnYaG4U3IA6hD6IUP2c-1" target="UCnYaG4U3IA6hD6IUP2c-3" edge="1">
          <mxGeometry relative="1" as="geometry">
            <Array as="points">
              <mxPoint x="100" y="330" />
              <mxPoint x="100" y="560" />
            </Array>
          </mxGeometry>
        </mxCell>
        <mxCell id="UCnYaG4U3IA6hD6IUP2c-31" style="edgeStyle=orthogonalEdgeStyle;rounded=0;orthogonalLoop=1;jettySize=auto;html=1;exitX=0.5;exitY=0.5;exitDx=0;exitDy=0;exitPerimeter=0;entryX=0.5;entryY=0.5;entryDx=0;entryDy=0;entryPerimeter=0;" parent="1" source="UCnYaG4U3IA6hD6IUP2c-1" target="UCnYaG4U3IA6hD6IUP2c-2" edge="1">
          <mxGeometry relative="1" as="geometry">
            <Array as="points">
              <mxPoint x="100" y="330" />
              <mxPoint x="100" y="200" />
            </Array>
          </mxGeometry>
        </mxCell>
        <mxCell id="UCnYaG4U3IA6hD6IUP2c-1" value="User" style="shape=umlActor;verticalLabelPosition=bottom;verticalAlign=top;html=1;outlineConnect=0;" parent="1" vertex="1">
          <mxGeometry x="40" y="300" width="40" height="60" as="geometry" />
        </mxCell>
        <mxCell id="UCnYaG4U3IA6hD6IUP2c-33" style="edgeStyle=orthogonalEdgeStyle;rounded=0;orthogonalLoop=1;jettySize=auto;html=1;exitX=0.5;exitY=0.5;exitDx=0;exitDy=0;exitPerimeter=0;entryX=0.5;entryY=1;entryDx=0;entryDy=0;" parent="1" source="UCnYaG4U3IA6hD6IUP2c-2" target="UCnYaG4U3IA6hD6IUP2c-21" edge="1">
          <mxGeometry relative="1" as="geometry" />
        </mxCell>
        <mxCell id="UCnYaG4U3IA6hD6IUP2c-34" style="edgeStyle=orthogonalEdgeStyle;rounded=0;orthogonalLoop=1;jettySize=auto;html=1;exitX=0.5;exitY=0.5;exitDx=0;exitDy=0;exitPerimeter=0;entryX=0.5;entryY=1;entryDx=0;entryDy=0;" parent="1" source="UCnYaG4U3IA6hD6IUP2c-2" target="UCnYaG4U3IA6hD6IUP2c-25" edge="1">
          <mxGeometry relative="1" as="geometry" />
        </mxCell>
        <mxCell id="UCnYaG4U3IA6hD6IUP2c-36" style="edgeStyle=orthogonalEdgeStyle;rounded=0;orthogonalLoop=1;jettySize=auto;html=1;exitX=0.5;exitY=0.5;exitDx=0;exitDy=0;exitPerimeter=0;entryX=0.5;entryY=1;entryDx=0;entryDy=0;" parent="1" source="UCnYaG4U3IA6hD6IUP2c-2" target="UCnYaG4U3IA6hD6IUP2c-26" edge="1">
          <mxGeometry relative="1" as="geometry" />
        </mxCell>
        <mxCell id="UCnYaG4U3IA6hD6IUP2c-38" style="edgeStyle=orthogonalEdgeStyle;rounded=0;orthogonalLoop=1;jettySize=auto;html=1;exitX=0.5;exitY=0.5;exitDx=0;exitDy=0;exitPerimeter=0;entryX=0.5;entryY=0;entryDx=0;entryDy=0;" parent="1" source="UCnYaG4U3IA6hD6IUP2c-2" target="UCnYaG4U3IA6hD6IUP2c-27" edge="1">
          <mxGeometry relative="1" as="geometry" />
        </mxCell>
        <mxCell id="UCnYaG4U3IA6hD6IUP2c-39" style="edgeStyle=orthogonalEdgeStyle;rounded=0;orthogonalLoop=1;jettySize=auto;html=1;exitX=0.5;exitY=0.5;exitDx=0;exitDy=0;exitPerimeter=0;entryX=0.5;entryY=0;entryDx=0;entryDy=0;" parent="1" source="UCnYaG4U3IA6hD6IUP2c-2" target="UCnYaG4U3IA6hD6IUP2c-28" edge="1">
          <mxGeometry relative="1" as="geometry" />
        </mxCell>
        <mxCell id="UCnYaG4U3IA6hD6IUP2c-40" style="edgeStyle=orthogonalEdgeStyle;rounded=0;orthogonalLoop=1;jettySize=auto;html=1;exitX=0.5;exitY=0.5;exitDx=0;exitDy=0;exitPerimeter=0;entryX=0.5;entryY=0;entryDx=0;entryDy=0;" parent="1" source="UCnYaG4U3IA6hD6IUP2c-2" target="UCnYaG4U3IA6hD6IUP2c-30" edge="1">
          <mxGeometry relative="1" as="geometry" />
        </mxCell>
        <mxCell id="UCnYaG4U3IA6hD6IUP2c-41" style="edgeStyle=orthogonalEdgeStyle;rounded=0;orthogonalLoop=1;jettySize=auto;html=1;exitX=0.5;exitY=0.5;exitDx=0;exitDy=0;exitPerimeter=0;entryX=0.5;entryY=0;entryDx=0;entryDy=0;" parent="1" source="UCnYaG4U3IA6hD6IUP2c-2" target="UCnYaG4U3IA6hD6IUP2c-29" edge="1">
          <mxGeometry relative="1" as="geometry" />
        </mxCell>
        <mxCell id="UCnYaG4U3IA6hD6IUP2c-2" value="Existing User" style="shape=umlActor;verticalLabelPosition=bottom;verticalAlign=top;html=1;outlineConnect=0;" parent="1" vertex="1">
          <mxGeometry x="120" y="170" width="40" height="60" as="geometry" />
        </mxCell>
        <mxCell id="UCnYaG4U3IA6hD6IUP2c-19" style="edgeStyle=orthogonalEdgeStyle;rounded=0;orthogonalLoop=1;jettySize=auto;html=1;exitX=0.5;exitY=0.5;exitDx=0;exitDy=0;exitPerimeter=0;entryX=0;entryY=0.5;entryDx=0;entryDy=0;" parent="1" source="UCnYaG4U3IA6hD6IUP2c-3" target="UCnYaG4U3IA6hD6IUP2c-15" edge="1">
          <mxGeometry relative="1" as="geometry" />
        </mxCell>
        <mxCell id="UCnYaG4U3IA6hD6IUP2c-3" value="New User" style="shape=umlActor;verticalLabelPosition=bottom;verticalAlign=top;html=1;outlineConnect=0;" parent="1" vertex="1">
          <mxGeometry x="120" y="530" width="40" height="60" as="geometry" />
        </mxCell>
        <mxCell id="UCnYaG4U3IA6hD6IUP2c-5" value="" style="shape=cylinder3;whiteSpace=wrap;html=1;boundedLbl=1;backgroundOutline=1;size=15;shadow=1;" parent="1" vertex="1">
          <mxGeometry x="784" y="410" width="40" height="80" as="geometry" />
        </mxCell>
        <mxCell id="UCnYaG4U3IA6hD6IUP2c-20" style="edgeStyle=orthogonalEdgeStyle;rounded=0;orthogonalLoop=1;jettySize=auto;html=1;exitX=0.5;exitY=0;exitDx=0;exitDy=0;entryX=0.5;entryY=1;entryDx=0;entryDy=0;" parent="1" source="UCnYaG4U3IA6hD6IUP2c-15" target="UCnYaG4U3IA6hD6IUP2c-16" edge="1">
          <mxGeometry relative="1" as="geometry" />
        </mxCell>
        <mxCell id="UCnYaG4U3IA6hD6IUP2c-60" style="edgeStyle=orthogonalEdgeStyle;rounded=0;orthogonalLoop=1;jettySize=auto;html=1;exitX=1;exitY=0.5;exitDx=0;exitDy=0;entryX=0;entryY=0;entryDx=0;entryDy=52.5;entryPerimeter=0;fontSize=20;" parent="1" source="UCnYaG4U3IA6hD6IUP2c-15" target="UCnYaG4U3IA6hD6IUP2c-5" edge="1">
          <mxGeometry relative="1" as="geometry">
            <Array as="points">
              <mxPoint x="482" y="560" />
              <mxPoint x="482" y="462" />
            </Array>
          </mxGeometry>
        </mxCell>
        <mxCell id="UCnYaG4U3IA6hD6IUP2c-15" value="Register" style="rounded=0;whiteSpace=wrap;html=1;shadow=1;fillColor=none;gradientColor=none;" parent="1" vertex="1">
          <mxGeometry x="260" y="530" width="120" height="60" as="geometry" />
        </mxCell>
        <mxCell id="UCnYaG4U3IA6hD6IUP2c-16" value="UserID Taken" style="rounded=0;whiteSpace=wrap;html=1;shadow=1;fillColor=none;gradientColor=none;" parent="1" vertex="1">
          <mxGeometry x="260" y="430" width="120" height="60" as="geometry" />
        </mxCell>
        <mxCell id="UCnYaG4U3IA6hD6IUP2c-17" value="Registration" style="text;html=1;strokeColor=none;fillColor=none;align=center;verticalAlign=middle;whiteSpace=wrap;rounded=0;shadow=1;" parent="1" vertex="1">
          <mxGeometry x="300" y="600" width="40" height="20" as="geometry" />
        </mxCell>
        <mxCell id="UCnYaG4U3IA6hD6IUP2c-43" style="edgeStyle=orthogonalEdgeStyle;rounded=0;orthogonalLoop=1;jettySize=auto;html=1;exitX=0.5;exitY=0;exitDx=0;exitDy=0;entryX=1;entryY=0.5;entryDx=0;entryDy=0;" parent="1" source="UCnYaG4U3IA6hD6IUP2c-21" target="UCnYaG4U3IA6hD6IUP2c-42" edge="1">
          <mxGeometry relative="1" as="geometry">
            <Array as="points">
              <mxPoint x="280" y="100" />
              <mxPoint x="660" y="100" />
              <mxPoint x="660" y="380" />
            </Array>
          </mxGeometry>
        </mxCell>
        <mxCell id="UCnYaG4U3IA6hD6IUP2c-21" value="Login" style="rounded=0;whiteSpace=wrap;html=1;shadow=1;fillColor=none;gradientColor=none;" parent="1" vertex="1">
          <mxGeometry x="240" y="120" width="80" height="40" as="geometry" />
        </mxCell>
        <mxCell id="UCnYaG4U3IA6hD6IUP2c-45" style="edgeStyle=orthogonalEdgeStyle;rounded=0;orthogonalLoop=1;jettySize=auto;html=1;exitX=0.5;exitY=0;exitDx=0;exitDy=0;entryX=1;entryY=0.5;entryDx=0;entryDy=0;" parent="1" source="UCnYaG4U3IA6hD6IUP2c-25" target="UCnYaG4U3IA6hD6IUP2c-42" edge="1">
          <mxGeometry relative="1" as="geometry">
            <Array as="points">
              <mxPoint x="440" y="100" />
              <mxPoint x="660" y="100" />
              <mxPoint x="660" y="380" />
            </Array>
          </mxGeometry>
        </mxCell>
        <mxCell id="UCnYaG4U3IA6hD6IUP2c-25" value="Logout" style="rounded=0;whiteSpace=wrap;html=1;shadow=1;fillColor=none;gradientColor=none;" parent="1" vertex="1">
          <mxGeometry x="400" y="120" width="80" height="40" as="geometry" />
        </mxCell>
        <mxCell id="UCnYaG4U3IA6hD6IUP2c-46" style="edgeStyle=orthogonalEdgeStyle;rounded=0;orthogonalLoop=1;jettySize=auto;html=1;exitX=0.5;exitY=0;exitDx=0;exitDy=0;entryX=1;entryY=0.5;entryDx=0;entryDy=0;" parent="1" source="UCnYaG4U3IA6hD6IUP2c-26" target="UCnYaG4U3IA6hD6IUP2c-42" edge="1">
          <mxGeometry relative="1" as="geometry">
            <Array as="points">
              <mxPoint x="600" y="100" />
              <mxPoint x="660" y="100" />
              <mxPoint x="660" y="380" />
            </Array>
          </mxGeometry>
        </mxCell>
        <mxCell id="UCnYaG4U3IA6hD6IUP2c-26" value="DeleteUser" style="rounded=0;whiteSpace=wrap;html=1;shadow=1;fillColor=none;gradientColor=none;" parent="1" vertex="1">
          <mxGeometry x="560" y="120" width="80" height="40" as="geometry" />
        </mxCell>
        <mxCell id="UCnYaG4U3IA6hD6IUP2c-47" style="edgeStyle=orthogonalEdgeStyle;rounded=0;orthogonalLoop=1;jettySize=auto;html=1;exitX=0.5;exitY=1;exitDx=0;exitDy=0;entryX=1;entryY=0.5;entryDx=0;entryDy=0;" parent="1" source="UCnYaG4U3IA6hD6IUP2c-27" target="UCnYaG4U3IA6hD6IUP2c-42" edge="1">
          <mxGeometry relative="1" as="geometry">
            <Array as="points">
              <mxPoint x="280" y="320" />
              <mxPoint x="660" y="320" />
              <mxPoint x="660" y="380" />
            </Array>
          </mxGeometry>
        </mxCell>
        <mxCell id="UCnYaG4U3IA6hD6IUP2c-27" value="AddContact" style="rounded=0;whiteSpace=wrap;html=1;shadow=1;fillColor=none;gradientColor=none;" parent="1" vertex="1">
          <mxGeometry x="240" y="240" width="80" height="40" as="geometry" />
        </mxCell>
        <mxCell id="UCnYaG4U3IA6hD6IUP2c-48" style="edgeStyle=orthogonalEdgeStyle;rounded=0;orthogonalLoop=1;jettySize=auto;html=1;exitX=0.5;exitY=1;exitDx=0;exitDy=0;entryX=1;entryY=0.5;entryDx=0;entryDy=0;" parent="1" source="UCnYaG4U3IA6hD6IUP2c-28" target="UCnYaG4U3IA6hD6IUP2c-42" edge="1">
          <mxGeometry relative="1" as="geometry">
            <Array as="points">
              <mxPoint x="385" y="320" />
              <mxPoint x="660" y="320" />
              <mxPoint x="660" y="380" />
            </Array>
          </mxGeometry>
        </mxCell>
        <mxCell id="UCnYaG4U3IA6hD6IUP2c-28" value="Update Contact" style="rounded=0;whiteSpace=wrap;html=1;shadow=1;fillColor=none;gradientColor=none;" parent="1" vertex="1">
          <mxGeometry x="345" y="240" width="80" height="40" as="geometry" />
        </mxCell>
        <mxCell id="UCnYaG4U3IA6hD6IUP2c-51" style="edgeStyle=orthogonalEdgeStyle;rounded=0;orthogonalLoop=1;jettySize=auto;html=1;exitX=0.5;exitY=1;exitDx=0;exitDy=0;entryX=1;entryY=0.5;entryDx=0;entryDy=0;" parent="1" source="UCnYaG4U3IA6hD6IUP2c-29" target="UCnYaG4U3IA6hD6IUP2c-42" edge="1">
          <mxGeometry relative="1" as="geometry">
            <Array as="points">
              <mxPoint x="600" y="320" />
              <mxPoint x="660" y="320" />
              <mxPoint x="660" y="380" />
            </Array>
          </mxGeometry>
        </mxCell>
        <mxCell id="UCnYaG4U3IA6hD6IUP2c-29" value="Delete Contact" style="rounded=0;whiteSpace=wrap;html=1;shadow=1;fillColor=none;gradientColor=none;" parent="1" vertex="1">
          <mxGeometry x="560" y="240" width="80" height="40" as="geometry" />
        </mxCell>
        <mxCell id="UCnYaG4U3IA6hD6IUP2c-49" style="edgeStyle=orthogonalEdgeStyle;rounded=0;orthogonalLoop=1;jettySize=auto;html=1;exitX=0.5;exitY=1;exitDx=0;exitDy=0;entryX=1;entryY=0.5;entryDx=0;entryDy=0;" parent="1" source="UCnYaG4U3IA6hD6IUP2c-30" target="UCnYaG4U3IA6hD6IUP2c-42" edge="1">
          <mxGeometry relative="1" as="geometry">
            <Array as="points">
              <mxPoint x="500" y="320" />
              <mxPoint x="660" y="320" />
              <mxPoint x="660" y="380" />
            </Array>
          </mxGeometry>
        </mxCell>
        <mxCell id="UCnYaG4U3IA6hD6IUP2c-30" value="Search Contact" style="rounded=0;whiteSpace=wrap;html=1;shadow=1;fillColor=none;gradientColor=none;" parent="1" vertex="1">
          <mxGeometry x="460" y="240" width="80" height="40" as="geometry" />
        </mxCell>
        <mxCell id="UCnYaG4U3IA6hD6IUP2c-54" style="edgeStyle=orthogonalEdgeStyle;rounded=0;orthogonalLoop=1;jettySize=auto;html=1;exitX=0.5;exitY=1;exitDx=0;exitDy=0;entryX=0;entryY=0;entryDx=0;entryDy=52.5;entryPerimeter=0;" parent="1" source="UCnYaG4U3IA6hD6IUP2c-42" target="UCnYaG4U3IA6hD6IUP2c-5" edge="1">
          <mxGeometry relative="1" as="geometry" />
        </mxCell>
        <mxCell id="UCnYaG4U3IA6hD6IUP2c-42" value="Authenticate" style="rounded=0;whiteSpace=wrap;html=1;shadow=1;fillColor=none;gradientColor=none;" parent="1" vertex="1">
          <mxGeometry x="500" y="360" width="120" height="40" as="geometry" />
        </mxCell>
        <mxCell id="UCnYaG4U3IA6hD6IUP2c-56" value="Connect Use Case Diagram" style="text;html=1;strokeColor=none;fillColor=none;align=center;verticalAlign=middle;whiteSpace=wrap;rounded=0;shadow=1;labelBorderColor=#000000;fontSize=20;" parent="1" vertex="1">
          <mxGeometry x="510" y="520" width="160" height="40" as="geometry" />
        </mxCell>
      </root>
    </mxGraphModel>
  </diagram>
</mxfile>
